<mxfile host="Electron" agent="Mozilla/5.0 (Windows NT 10.0; Win64; x64) AppleWebKit/537.36 (KHTML, like Gecko) draw.io/26.1.1 Chrome/132.0.6834.210 Electron/34.3.3 Safari/537.36" version="26.1.1">
  <diagram name="Page-1" id="F8o35oETYYxVD8tJnoiB">
    <mxGraphModel dx="1909" dy="1129" grid="1" gridSize="10" guides="1" tooltips="1" connect="1" arrows="1" fold="1" page="1" pageScale="1" pageWidth="850" pageHeight="1100" math="0" shadow="0">
      <root>
        <mxCell id="0" />
        <mxCell id="1" parent="0" />
        <mxCell id="6oDHK3qVVxZd5-QPnWFQ-8" value="" style="edgeStyle=orthogonalEdgeStyle;rounded=0;orthogonalLoop=1;jettySize=auto;html=1;" parent="1" source="6oDHK3qVVxZd5-QPnWFQ-1" target="6oDHK3qVVxZd5-QPnWFQ-7" edge="1">
          <mxGeometry relative="1" as="geometry" />
        </mxCell>
        <mxCell id="6oDHK3qVVxZd5-QPnWFQ-1" value="start" style="strokeWidth=2;html=1;shape=mxgraph.flowchart.terminator;whiteSpace=wrap;fillColor=#d5e8d4;strokeColor=#82b366;" parent="1" vertex="1">
          <mxGeometry x="370" y="310" width="100" height="60" as="geometry" />
        </mxCell>
        <mxCell id="6oDHK3qVVxZd5-QPnWFQ-10" value="" style="edgeStyle=orthogonalEdgeStyle;rounded=0;orthogonalLoop=1;jettySize=auto;html=1;" parent="1" source="6oDHK3qVVxZd5-QPnWFQ-7" target="6oDHK3qVVxZd5-QPnWFQ-9" edge="1">
          <mxGeometry relative="1" as="geometry" />
        </mxCell>
        <mxCell id="6oDHK3qVVxZd5-QPnWFQ-7" value="define variables&lt;div&gt;&lt;div&gt;projectCost, hoursProjected, wholesaleCostMaterials, laborCost, materialCost&lt;/div&gt;&lt;div&gt;COST_PER_HOUR = 30, MATERIAL_RETAIL_PERCENT_INCREASE = 1.2&lt;/div&gt;&lt;/div&gt;" style="whiteSpace=wrap;html=1;strokeWidth=2;fillColor=#dae8fc;strokeColor=#6c8ebf;" parent="1" vertex="1">
          <mxGeometry x="285" y="430" width="270" height="100" as="geometry" />
        </mxCell>
        <mxCell id="6oDHK3qVVxZd5-QPnWFQ-14" value="" style="edgeStyle=orthogonalEdgeStyle;rounded=0;orthogonalLoop=1;jettySize=auto;html=1;" parent="1" source="6oDHK3qVVxZd5-QPnWFQ-9" target="6oDHK3qVVxZd5-QPnWFQ-13" edge="1">
          <mxGeometry relative="1" as="geometry" />
        </mxCell>
        <mxCell id="6oDHK3qVVxZd5-QPnWFQ-9" value="input hoursProjected" style="shape=parallelogram;perimeter=parallelogramPerimeter;whiteSpace=wrap;html=1;fixedSize=1;strokeWidth=2;fillColor=#fff2cc;strokeColor=#d6b656;" parent="1" vertex="1">
          <mxGeometry x="345" y="590" width="150" height="60" as="geometry" />
        </mxCell>
        <mxCell id="6oDHK3qVVxZd5-QPnWFQ-16" value="" style="edgeStyle=orthogonalEdgeStyle;rounded=0;orthogonalLoop=1;jettySize=auto;html=1;" parent="1" source="6oDHK3qVVxZd5-QPnWFQ-13" target="6oDHK3qVVxZd5-QPnWFQ-15" edge="1">
          <mxGeometry relative="1" as="geometry" />
        </mxCell>
        <mxCell id="6oDHK3qVVxZd5-QPnWFQ-20" value="" style="edgeStyle=orthogonalEdgeStyle;rounded=0;orthogonalLoop=1;jettySize=auto;html=1;" parent="1" source="6oDHK3qVVxZd5-QPnWFQ-13" target="6oDHK3qVVxZd5-QPnWFQ-19" edge="1">
          <mxGeometry relative="1" as="geometry" />
        </mxCell>
        <mxCell id="6oDHK3qVVxZd5-QPnWFQ-13" value="hoursProjected not 0?" style="rhombus;whiteSpace=wrap;html=1;strokeWidth=2;fillColor=#ffe6cc;strokeColor=#d79b00;" parent="1" vertex="1">
          <mxGeometry x="350" y="710" width="140" height="140" as="geometry" />
        </mxCell>
        <mxCell id="6oDHK3qVVxZd5-QPnWFQ-15" value="endProgram()" style="shape=process;whiteSpace=wrap;html=1;backgroundOutline=1;strokeWidth=2;fillColor=#e1d5e7;strokeColor=#9673a6;" parent="1" vertex="1">
          <mxGeometry x="360" y="910" width="120" height="60" as="geometry" />
        </mxCell>
        <mxCell id="6oDHK3qVVxZd5-QPnWFQ-17" value="stop" style="strokeWidth=2;html=1;shape=mxgraph.flowchart.terminator;whiteSpace=wrap;fillColor=#d5e8d4;strokeColor=#82b366;" parent="1" vertex="1">
          <mxGeometry x="370" y="1030" width="100" height="60" as="geometry" />
        </mxCell>
        <mxCell id="6oDHK3qVVxZd5-QPnWFQ-18" style="edgeStyle=orthogonalEdgeStyle;rounded=0;orthogonalLoop=1;jettySize=auto;html=1;entryX=0.5;entryY=0;entryDx=0;entryDy=0;entryPerimeter=0;" parent="1" source="6oDHK3qVVxZd5-QPnWFQ-15" target="6oDHK3qVVxZd5-QPnWFQ-17" edge="1">
          <mxGeometry relative="1" as="geometry" />
        </mxCell>
        <mxCell id="6oDHK3qVVxZd5-QPnWFQ-19" value="calculatorLoop()" style="shape=process;whiteSpace=wrap;html=1;backgroundOutline=1;strokeWidth=2;fillColor=#e1d5e7;strokeColor=#9673a6;" parent="1" vertex="1">
          <mxGeometry x="580" y="750" width="160" height="60" as="geometry" />
        </mxCell>
        <mxCell id="6oDHK3qVVxZd5-QPnWFQ-21" value="" style="endArrow=classic;html=1;rounded=0;exitX=0.5;exitY=0;exitDx=0;exitDy=0;" parent="1" source="6oDHK3qVVxZd5-QPnWFQ-19" edge="1">
          <mxGeometry width="50" height="50" relative="1" as="geometry">
            <mxPoint x="640" y="730" as="sourcePoint" />
            <mxPoint x="420" y="680" as="targetPoint" />
            <Array as="points">
              <mxPoint x="660" y="680" />
            </Array>
          </mxGeometry>
        </mxCell>
        <mxCell id="6oDHK3qVVxZd5-QPnWFQ-29" value="" style="edgeStyle=orthogonalEdgeStyle;rounded=0;orthogonalLoop=1;jettySize=auto;html=1;" parent="1" source="6oDHK3qVVxZd5-QPnWFQ-22" target="6oDHK3qVVxZd5-QPnWFQ-28" edge="1">
          <mxGeometry relative="1" as="geometry" />
        </mxCell>
        <mxCell id="6oDHK3qVVxZd5-QPnWFQ-22" value="calculatorLoop()" style="strokeWidth=2;html=1;shape=mxgraph.flowchart.terminator;whiteSpace=wrap;fillColor=#d5e8d4;strokeColor=#82b366;" parent="1" vertex="1">
          <mxGeometry x="827.5" y="740" width="140" height="80" as="geometry" />
        </mxCell>
        <mxCell id="6oDHK3qVVxZd5-QPnWFQ-23" value="return" style="strokeWidth=2;html=1;shape=mxgraph.flowchart.terminator;whiteSpace=wrap;fillColor=#d5e8d4;strokeColor=#82b366;" parent="1" vertex="1">
          <mxGeometry x="847.5" y="1270" width="100" height="60" as="geometry" />
        </mxCell>
        <mxCell id="6oDHK3qVVxZd5-QPnWFQ-60" value="" style="edgeStyle=orthogonalEdgeStyle;rounded=0;orthogonalLoop=1;jettySize=auto;html=1;" parent="1" source="6oDHK3qVVxZd5-QPnWFQ-24" target="6oDHK3qVVxZd5-QPnWFQ-59" edge="1">
          <mxGeometry relative="1" as="geometry" />
        </mxCell>
        <mxCell id="6oDHK3qVVxZd5-QPnWFQ-24" value="outputResult()" style="strokeWidth=2;html=1;shape=mxgraph.flowchart.terminator;whiteSpace=wrap;fillColor=#d5e8d4;strokeColor=#82b366;" parent="1" vertex="1">
          <mxGeometry x="1027.5" y="1070" width="100" height="60" as="geometry" />
        </mxCell>
        <mxCell id="6oDHK3qVVxZd5-QPnWFQ-25" value="return" style="strokeWidth=2;html=1;shape=mxgraph.flowchart.terminator;whiteSpace=wrap;fillColor=#d5e8d4;strokeColor=#82b366;" parent="1" vertex="1">
          <mxGeometry x="1380" y="1070" width="100" height="60" as="geometry" />
        </mxCell>
        <mxCell id="6oDHK3qVVxZd5-QPnWFQ-50" value="" style="edgeStyle=orthogonalEdgeStyle;rounded=0;orthogonalLoop=1;jettySize=auto;html=1;" parent="1" source="6oDHK3qVVxZd5-QPnWFQ-26" target="6oDHK3qVVxZd5-QPnWFQ-49" edge="1">
          <mxGeometry relative="1" as="geometry" />
        </mxCell>
        <mxCell id="6oDHK3qVVxZd5-QPnWFQ-26" value="endProgram()" style="strokeWidth=2;html=1;shape=mxgraph.flowchart.terminator;whiteSpace=wrap;fillColor=#d5e8d4;strokeColor=#82b366;" parent="1" vertex="1">
          <mxGeometry x="540" y="910" width="100" height="60" as="geometry" />
        </mxCell>
        <mxCell id="6oDHK3qVVxZd5-QPnWFQ-27" value="return" style="strokeWidth=2;html=1;shape=mxgraph.flowchart.terminator;whiteSpace=wrap;fillColor=#d5e8d4;strokeColor=#82b366;" parent="1" vertex="1">
          <mxGeometry x="540" y="1190" width="100" height="60" as="geometry" />
        </mxCell>
        <mxCell id="6oDHK3qVVxZd5-QPnWFQ-32" value="" style="edgeStyle=orthogonalEdgeStyle;rounded=0;orthogonalLoop=1;jettySize=auto;html=1;" parent="1" source="6oDHK3qVVxZd5-QPnWFQ-28" target="6oDHK3qVVxZd5-QPnWFQ-31" edge="1">
          <mxGeometry relative="1" as="geometry" />
        </mxCell>
        <mxCell id="6oDHK3qVVxZd5-QPnWFQ-28" value="input wholesaleCostMaterials" style="shape=parallelogram;perimeter=parallelogramPerimeter;whiteSpace=wrap;html=1;fixedSize=1;strokeWidth=2;fillColor=#fff2cc;strokeColor=#d6b656;" parent="1" vertex="1">
          <mxGeometry x="820" y="860" width="155" height="70" as="geometry" />
        </mxCell>
        <mxCell id="6oDHK3qVVxZd5-QPnWFQ-39" value="" style="edgeStyle=orthogonalEdgeStyle;rounded=0;orthogonalLoop=1;jettySize=auto;html=1;" parent="1" source="6oDHK3qVVxZd5-QPnWFQ-30" target="6oDHK3qVVxZd5-QPnWFQ-38" edge="1">
          <mxGeometry relative="1" as="geometry" />
        </mxCell>
        <mxCell id="6oDHK3qVVxZd5-QPnWFQ-30" value="calculateCost()" style="strokeWidth=2;html=1;shape=mxgraph.flowchart.terminator;whiteSpace=wrap;fillColor=#d5e8d4;strokeColor=#82b366;" parent="1" vertex="1">
          <mxGeometry x="1027.5" y="970" width="100" height="60" as="geometry" />
        </mxCell>
        <mxCell id="6oDHK3qVVxZd5-QPnWFQ-34" value="" style="edgeStyle=orthogonalEdgeStyle;rounded=0;orthogonalLoop=1;jettySize=auto;html=1;" parent="1" source="6oDHK3qVVxZd5-QPnWFQ-31" target="6oDHK3qVVxZd5-QPnWFQ-33" edge="1">
          <mxGeometry relative="1" as="geometry" />
        </mxCell>
        <mxCell id="6oDHK3qVVxZd5-QPnWFQ-31" value="calculateCost()" style="shape=process;whiteSpace=wrap;html=1;backgroundOutline=1;strokeWidth=2;fillColor=#e1d5e7;strokeColor=#9673a6;" parent="1" vertex="1">
          <mxGeometry x="837.5" y="970" width="120" height="60" as="geometry" />
        </mxCell>
        <mxCell id="6oDHK3qVVxZd5-QPnWFQ-36" value="" style="edgeStyle=orthogonalEdgeStyle;rounded=0;orthogonalLoop=1;jettySize=auto;html=1;" parent="1" source="6oDHK3qVVxZd5-QPnWFQ-33" target="6oDHK3qVVxZd5-QPnWFQ-35" edge="1">
          <mxGeometry relative="1" as="geometry" />
        </mxCell>
        <mxCell id="6oDHK3qVVxZd5-QPnWFQ-33" value="outputResult()" style="shape=process;whiteSpace=wrap;html=1;backgroundOutline=1;strokeWidth=2;fillColor=#e1d5e7;strokeColor=#9673a6;" parent="1" vertex="1">
          <mxGeometry x="837.5" y="1070" width="120" height="60" as="geometry" />
        </mxCell>
        <mxCell id="6oDHK3qVVxZd5-QPnWFQ-35" value="input hoursProjected" style="shape=parallelogram;perimeter=parallelogramPerimeter;whiteSpace=wrap;html=1;fixedSize=1;strokeWidth=2;fillColor=#fff2cc;strokeColor=#d6b656;" parent="1" vertex="1">
          <mxGeometry x="827.5" y="1170" width="140" height="60" as="geometry" />
        </mxCell>
        <mxCell id="6oDHK3qVVxZd5-QPnWFQ-37" style="edgeStyle=orthogonalEdgeStyle;rounded=0;orthogonalLoop=1;jettySize=auto;html=1;entryX=0.5;entryY=0;entryDx=0;entryDy=0;entryPerimeter=0;" parent="1" source="6oDHK3qVVxZd5-QPnWFQ-35" target="6oDHK3qVVxZd5-QPnWFQ-23" edge="1">
          <mxGeometry relative="1" as="geometry" />
        </mxCell>
        <mxCell id="6oDHK3qVVxZd5-QPnWFQ-41" value="" style="edgeStyle=orthogonalEdgeStyle;rounded=0;orthogonalLoop=1;jettySize=auto;html=1;" parent="1" source="6oDHK3qVVxZd5-QPnWFQ-38" target="6oDHK3qVVxZd5-QPnWFQ-40" edge="1">
          <mxGeometry relative="1" as="geometry" />
        </mxCell>
        <mxCell id="6oDHK3qVVxZd5-QPnWFQ-38" value="laborCost = hoursProjected * COST_PER_HOUR" style="whiteSpace=wrap;html=1;strokeWidth=2;fillColor=#dae8fc;strokeColor=#6c8ebf;" parent="1" vertex="1">
          <mxGeometry x="1177.5" y="970" width="120" height="60" as="geometry" />
        </mxCell>
        <mxCell id="6oDHK3qVVxZd5-QPnWFQ-43" value="" style="edgeStyle=orthogonalEdgeStyle;rounded=0;orthogonalLoop=1;jettySize=auto;html=1;" parent="1" source="6oDHK3qVVxZd5-QPnWFQ-40" target="6oDHK3qVVxZd5-QPnWFQ-42" edge="1">
          <mxGeometry relative="1" as="geometry" />
        </mxCell>
        <mxCell id="6oDHK3qVVxZd5-QPnWFQ-40" value="materailCost = wholesaleCostMaterials * MATERIAL_RETAIL_PERCENT_INCREASE" style="whiteSpace=wrap;html=1;strokeWidth=2;fillColor=#dae8fc;strokeColor=#6c8ebf;" parent="1" vertex="1">
          <mxGeometry x="1350" y="955" width="252.5" height="90" as="geometry" />
        </mxCell>
        <mxCell id="6oDHK3qVVxZd5-QPnWFQ-42" value="projectCost = laborCost + materialCost" style="whiteSpace=wrap;html=1;strokeWidth=2;fillColor=#dae8fc;strokeColor=#6c8ebf;" parent="1" vertex="1">
          <mxGeometry x="1660" y="970" width="120" height="60" as="geometry" />
        </mxCell>
        <mxCell id="6oDHK3qVVxZd5-QPnWFQ-49" value="output &quot;End of program&quot;" style="shape=parallelogram;perimeter=parallelogramPerimeter;whiteSpace=wrap;html=1;fixedSize=1;strokeWidth=2;fillColor=#fff2cc;strokeColor=#d6b656;" parent="1" vertex="1">
          <mxGeometry x="530" y="1050" width="120" height="60" as="geometry" />
        </mxCell>
        <mxCell id="6oDHK3qVVxZd5-QPnWFQ-51" style="edgeStyle=orthogonalEdgeStyle;rounded=0;orthogonalLoop=1;jettySize=auto;html=1;entryX=0.5;entryY=0;entryDx=0;entryDy=0;entryPerimeter=0;" parent="1" source="6oDHK3qVVxZd5-QPnWFQ-49" target="6oDHK3qVVxZd5-QPnWFQ-27" edge="1">
          <mxGeometry relative="1" as="geometry" />
        </mxCell>
        <mxCell id="6oDHK3qVVxZd5-QPnWFQ-52" value="return" style="strokeWidth=2;html=1;shape=mxgraph.flowchart.terminator;whiteSpace=wrap;fillColor=#d5e8d4;strokeColor=#82b366;" parent="1" vertex="1">
          <mxGeometry x="1840" y="970" width="100" height="60" as="geometry" />
        </mxCell>
        <mxCell id="6oDHK3qVVxZd5-QPnWFQ-53" style="edgeStyle=orthogonalEdgeStyle;rounded=0;orthogonalLoop=1;jettySize=auto;html=1;entryX=0;entryY=0.5;entryDx=0;entryDy=0;entryPerimeter=0;" parent="1" source="6oDHK3qVVxZd5-QPnWFQ-42" target="6oDHK3qVVxZd5-QPnWFQ-52" edge="1">
          <mxGeometry relative="1" as="geometry" />
        </mxCell>
        <mxCell id="6oDHK3qVVxZd5-QPnWFQ-54" value="" style="shape=flexArrow;endArrow=classic;html=1;rounded=0;exitX=1;exitY=0.5;exitDx=0;exitDy=0;entryX=0;entryY=0.5;entryDx=0;entryDy=0;entryPerimeter=0;fillColor=#e1d5e7;strokeColor=#9673a6;" parent="1" source="6oDHK3qVVxZd5-QPnWFQ-15" target="6oDHK3qVVxZd5-QPnWFQ-26" edge="1">
          <mxGeometry width="50" height="50" relative="1" as="geometry">
            <mxPoint x="520" y="950" as="sourcePoint" />
            <mxPoint x="530" y="910" as="targetPoint" />
          </mxGeometry>
        </mxCell>
        <mxCell id="6oDHK3qVVxZd5-QPnWFQ-55" value="" style="shape=flexArrow;endArrow=classic;html=1;rounded=0;exitX=1;exitY=0.5;exitDx=0;exitDy=0;entryX=0;entryY=0.5;entryDx=0;entryDy=0;entryPerimeter=0;fillColor=#e1d5e7;strokeColor=#9673a6;" parent="1" source="6oDHK3qVVxZd5-QPnWFQ-19" target="6oDHK3qVVxZd5-QPnWFQ-22" edge="1">
          <mxGeometry width="50" height="50" relative="1" as="geometry">
            <mxPoint x="650" y="970" as="sourcePoint" />
            <mxPoint x="700" y="920" as="targetPoint" />
          </mxGeometry>
        </mxCell>
        <mxCell id="6oDHK3qVVxZd5-QPnWFQ-56" value="" style="shape=flexArrow;endArrow=classic;html=1;rounded=0;exitX=1;exitY=0.5;exitDx=0;exitDy=0;entryX=0;entryY=0.5;entryDx=0;entryDy=0;entryPerimeter=0;fillColor=#e1d5e7;strokeColor=#9673a6;" parent="1" source="6oDHK3qVVxZd5-QPnWFQ-31" target="6oDHK3qVVxZd5-QPnWFQ-30" edge="1">
          <mxGeometry width="50" height="50" relative="1" as="geometry">
            <mxPoint x="1300" y="1110" as="sourcePoint" />
            <mxPoint x="1350" y="1060" as="targetPoint" />
          </mxGeometry>
        </mxCell>
        <mxCell id="6oDHK3qVVxZd5-QPnWFQ-58" value="" style="shape=flexArrow;endArrow=classic;html=1;rounded=0;exitX=1;exitY=0.5;exitDx=0;exitDy=0;entryX=0;entryY=0.5;entryDx=0;entryDy=0;entryPerimeter=0;fillColor=#e1d5e7;strokeColor=#9673a6;" parent="1" source="6oDHK3qVVxZd5-QPnWFQ-33" target="6oDHK3qVVxZd5-QPnWFQ-24" edge="1">
          <mxGeometry width="50" height="50" relative="1" as="geometry">
            <mxPoint x="1300" y="1110" as="sourcePoint" />
            <mxPoint x="1350" y="1060" as="targetPoint" />
          </mxGeometry>
        </mxCell>
        <mxCell id="6oDHK3qVVxZd5-QPnWFQ-59" value="output projectCost" style="shape=parallelogram;perimeter=parallelogramPerimeter;whiteSpace=wrap;html=1;fixedSize=1;fillColor=#fff2cc;strokeColor=#d6b656;strokeWidth=2;" parent="1" vertex="1">
          <mxGeometry x="1197.5" y="1070" width="122.5" height="60" as="geometry" />
        </mxCell>
        <mxCell id="6oDHK3qVVxZd5-QPnWFQ-61" style="edgeStyle=orthogonalEdgeStyle;rounded=0;orthogonalLoop=1;jettySize=auto;html=1;entryX=0;entryY=0.5;entryDx=0;entryDy=0;entryPerimeter=0;" parent="1" source="6oDHK3qVVxZd5-QPnWFQ-59" target="6oDHK3qVVxZd5-QPnWFQ-25" edge="1">
          <mxGeometry relative="1" as="geometry" />
        </mxCell>
        <mxCell id="6oDHK3qVVxZd5-QPnWFQ-63" value="YES" style="text;html=1;align=center;verticalAlign=middle;resizable=0;points=[];autosize=1;strokeColor=none;fillColor=none;fontStyle=1" parent="1" vertex="1">
          <mxGeometry x="505" y="748" width="50" height="30" as="geometry" />
        </mxCell>
        <mxCell id="6oDHK3qVVxZd5-QPnWFQ-64" value="NO" style="text;html=1;align=center;verticalAlign=middle;resizable=0;points=[];autosize=1;strokeColor=none;fillColor=none;fontStyle=1" parent="1" vertex="1">
          <mxGeometry x="385" y="860" width="40" height="30" as="geometry" />
        </mxCell>
      </root>
    </mxGraphModel>
  </diagram>
</mxfile>
